<?xml version="1.0" encoding="UTF-8"?>
<svg width="1366px" height="768px" viewBox="0 0 1366 768" version="1.1" xmlns="http://www.w3.org/2000/svg" xmlns:xlink="http://www.w3.org/1999/xlink">
    <!-- Generator: Sketch 52 (66869) - http://www.bohemiancoding.com/sketch -->
    <title>background</title>
    <desc>Created with Sketch.</desc>
    <g id="Tutor-Force" stroke="none" stroke-width="1" fill="none" fill-rule="evenodd">
        <g id="1.-sign-in">
            <g id="background" transform="translate(-2.000000, -2.000000)">
                <g id="Layer_5" fill="#F8F8F8">
                    <rect id="Rectangle" x="0.502926654" y="0" width="1373.99562" height="772.876232"></rect>
                </g>
                <g id="Layer_1-2" transform="translate(0.000000, 482.000000)" fill="#F6892E" opacity="0.5" stroke="#FFFFFF" stroke-width="3">
                    <path d="M1376,290.993103 L1376,291.144138 L1374.99415,291.144138 C993.305029,291.305241 367.446316,291.51669 3.01754386,291.405931 L3.01754386,290.993103 L0.502923977,290.993103 L0.502923977,7.49131034 L3.01754386,7.13889655 C39.6102924,2.10441379 74.7948538,2.10441379 105.111111,10.0689655 C160.322105,24.5682759 224.978012,66.5357241 300.859181,110.416276 C419.911345,179.277931 566.624327,252.882069 747.847953,232.593103 C776.072086,229.401811 804.039033,224.24065 831.544561,217.14731 C897.37731,200.261655 957.476725,173.911172 1015.47392,145.204552 C1133.57053,86.8045517 1242.98667,18.6376552 1374.47111,0.936413793 L1374.97404,0.865931034 L1375.59766,179.338345 L1375.7083,211.881241 L1376,290.993103 Z" id="Path"></path>
                </g>
                <g id="Layer_2-2" transform="translate(0.000000, 439.000000)" fill="#85287E" opacity="0.5" stroke="#FFFFFF" stroke-width="3">
                    <path d="M1376,254.916446 L1374.99415,255.057289 L1374.49123,255.127711 C1283.68327,268.46759 1166.38129,277.551988 1017.4152,275.650602 C948.162573,274.765301 886.765614,269.201988 831.55462,260.218193 C649.355322,230.580723 534.537778,163.800843 427.113216,105.692892 C344.865029,61.2165663 266.962105,21.8206627 166.467836,8.04819277 C101.922573,-0.794759036 47.8884211,-1.45873494 3.01754386,2.66596386 L0.502923977,2.90740964 L0.502923977,334 L1376,334" id="Path"></path>
                </g>
                <g id="Layer_3" transform="translate(0.000000, 482.000000)" fill="#5CB5E6" opacity="0.45" stroke="#FFFFFF" stroke-width="3">
                    <path d="M1376,179.288 L1376,290.993103 L0.502923977,290.993103 L0.502923977,199.295034 C1.33777778,199.234621 2.17263158,199.174207 3.01754386,199.093655 C39.8718129,196.203862 82.2884211,189.568414 130.25731,177.213793 C211.399064,156.32069 257.839064,132.17531 300.859181,110.416276 C338.548304,91.3456552 373.612164,74.168 427.103158,62.488 C468.463626,53.4964138 520.838129,47.8577931 593.953216,47.3241379 C728.264094,46.3172414 865.431579,103.941931 1015.48398,145.204552 C1126.71064,175.794069 1245.01848,197.392 1374.48117,179.499448 L1374.98409,179.428966 L1375.60772,179.338345 L1376,179.288 Z" id="Path"></path>
                </g>
            </g>
        </g>
    </g>
</svg>