<?xml version="1.0" encoding="UTF-8"?>
<svg width="204px" height="181px" viewBox="0 0 204 181" version="1.1" xmlns="http://www.w3.org/2000/svg" xmlns:xlink="http://www.w3.org/1999/xlink">
    <!-- Generator: Sketch 52 (66869) - http://www.bohemiancoding.com/sketch -->
    <title>logo</title>
    <desc>Created with Sketch.</desc>
    <g id="Symbols" stroke="none" stroke-width="1" fill="none" fill-rule="evenodd">
        <g id="logo" transform="translate(1.000000, 0.000000)">
            <g>
                <path d="M30.3916125,144.989744 C13.3595144,144.561717 -0.173175119,130.628577 0.00167542588,113.700526 C0.176525971,96.7724751 13.9941666,83.118247 31.0315182,83.0376533 C32.9919473,83.0288901 34.9485273,83.2109356 36.8732384,83.5811827 C41.1080472,65.1860831 55.7236653,50.9181712 74.3087549,47.0362589 C92.8938445,43.1543466 112.054002,50.3674311 123.384366,65.5113956 C123.497897,65.6652247 123.62175,65.8087985 123.724961,65.9626276 C126.382559,69.6035155 128.518754,73.5932726 130.072413,77.8177205 C132.526031,77.2547233 135.037015,76.975974 137.555181,76.9870436 C156.452207,76.9983582 171.76843,92.2169509 171.779817,110.993521 C171.779817,113.454786 172.275228,115.475075 171.779817,117.782511 C171.116727,119.833099 170.284789,121.82594 169.292442,123.740823 C164.062904,136.592195 151.506226,145.003274 137.555181,144.999999 L31.155371,144.999999" id="Path" stroke="#1A2045" stroke-width="1.37" fill="#FFFFFF"></path>
                <path d="M30.3916125,144.989744 C13.3595144,144.561717 -0.173175119,130.628577 0.00167542588,113.700526 C0.176525971,96.7724751 13.9941666,83.118247 31.0315182,83.0376533 C32.9919473,83.0288901 34.9485273,83.2109356 36.8732384,83.5811827 C41.1080472,65.1860831 55.7236653,50.9181712 74.3087549,47.0362589 C92.8938445,43.1543466 112.054002,50.3674311 123.384366,65.5113956 C123.497897,65.6652247 123.62175,65.8087985 123.724961,65.9626276 C126.382559,69.6035155 128.518754,73.5932726 130.072413,77.8177205 C132.526031,77.2547233 135.037015,76.975974 137.555181,76.9870436 C156.452207,76.9983582 171.76843,92.2169509 171.779817,110.993521 C171.779817,113.454786 172.275228,115.475075 171.779817,117.782511 C171.116727,119.833099 170.284789,121.82594 169.292442,123.740823 C164.062904,136.592195 151.506226,145.003274 137.555181,144.999999 L31.155371,144.999999" id="Path" stroke="#1A2045" stroke-width="1.37"></path>
                <path d="M202.522696,94.9973835 L191.718799,92.4363621 L189.815306,91.9874181 L188.382456,91.6405068 L180.256001,89.7222916 C178.145097,84.9161332 174.98657,80.6161413 171,77.12125 L185.349416,62 C185.515093,62.1632502 185.655971,62.3487897 185.767766,62.5509767 L202.982882,94.5076264 C203.077011,94.5892526 202.763248,95.0381966 202.522696,94.9973835 Z" id="Path" fill="#F6892E"></path>
                <path d="M191,92.4111541 L181.540114,102.690007 C181.27734,102.988093 180.898944,103.080603 180.730769,102.92642 L180.089599,102.381641 C179.921423,102.227458 179.995,101.836862 180.268285,101.559333 L189.108023,92 L191,92.4111541 Z" id="Path" fill="#A35224"></path>
                <path d="M185,61.5256353 L170.95576,77 C167.058638,73.431718 162.458678,70.7545415 157.464283,69.1479607 L150.012237,47.5339695 C149.930347,47.3042555 150.278382,46.92836 150.493344,47.0118924 L184.068494,60.8678182 C184.42686,61.0064786 184.74662,61.2322887 185,61.5256353 Z" id="Path" fill="#FEDA00"></path>
                <path d="M180,89.8220339 L179.815317,89.8220339 L174.787834,95.5215716 C174.595933,95.7444358 174.347576,95.9098759 174.069623,96 C172.180381,91.0825252 169.179218,86.6830263 165.307439,83.1552388 C164.938073,82.7808166 164.568706,82.4687982 164.18908,82.1151772 C160.615446,79.0950071 156.466106,76.8538576 152,75.5315871 C152.072726,75.2762005 152.202642,75.0412852 152.379626,74.8451464 L157.417369,69.135208 L157.417369,69 C162.426521,70.6052615 167.040238,73.2752276 170.950531,76.8316641 C174.865291,80.4411575 177.953941,84.8748661 180,89.8220339 Z" id="Path" fill="#1A2045"></path>
                <circle id="Oval" fill="#1A2045" cx="162" cy="107" r="3"></circle>
                <path d="M88.7582198,31.0801158 C89.0754564,31.5815504 89.0856898,32.1247712 88.7582198,32.3023626 L87.734876,32.9291559 C87.4585732,33.1171938 86.9776017,32.9291559 86.7115323,32.385935 L77,16.4236005 L78.401981,14 L88.7582198,31.0801158 Z" id="Path" fill="#5CB5E6"></path>
                <circle id="Oval" fill="#1A2045" cx="83" cy="64" r="4"></circle>
                <path d="M85.97385,0.790644609 L82.9907162,5.92470051 L78.1702197,14.3856246 L76.7560698,16.7575585 L74.5264611,20.9982886 L69.9020876,29.0895608 L69.994988,29.2230462 C62.6494564,29.8601276 55.5518001,32.1796291 49.2575631,36 L33,11.1306332 C33.3820164,10.8907428 33.8055474,10.7236119 34.2489937,10.6377638 L85.4370923,0 C85.62219,0.0168469727 85.7898952,0.115498765 85.8939192,0.268726298 C85.9979433,0.421953832 86.0272866,0.613554643 85.97385,0.790644609 Z" id="Path" fill="#5CB5E6"></path>
                <path d="M76,39.2975779 C68.8519343,39.9717528 61.9451533,42.2454406 55.7872085,45.9515571 C49.1541187,49.9245356 43.55814,55.4256071 39.4618899,62 C39.143471,61.7962348 38.8748932,61.5230282 38.6761241,61.200692 L33,51.9723183 C37.0732832,45.392147 42.6345092,39.8690047 49.2322674,35.8512111 C55.5377311,31.9993647 62.6410845,29.6552032 69.9930272,29 L75.6691512,38.1141869 C75.8813069,38.4725141 75.9954386,38.8807441 76,39.2975779 Z" id="Path" fill="#1A2045"></path>
                <circle id="Oval" fill="#1A2045" cx="58.5" cy="79.5" r="4.5"></circle>
                <path d="M49,35.9430972 C42.4380099,39.9492716 36.9113637,45.4650181 32.872876,52.0384154 L0.546906225,54 C0.219035851,54 -0.139572371,53.3908764 0.0551006637,53.1430972 L31.9200027,11.8465786 C32.1788779,11.5150127 32.4904742,11.2289476 32.8421381,11 L49,35.9430972 Z" id="Path" fill="#85287E"></path>
                <path d="M143.952132,173.09838 C143.922907,173.475337 143.868634,173.849956 143.789669,174.21978 L135.788382,174.21978 L135.788382,174.351115 C135.649488,175.255628 135.875797,176.178085 136.417924,176.917202 C137.024874,177.550537 137.886847,177.877252 138.76348,177.80624 C140.095377,177.804344 141.392579,177.383553 142.46966,176.604018 L142.957048,178.523532 C142.3624,179.017219 141.670719,179.381961 140.926264,179.594419 C140.122594,179.854567 139.283652,179.990847 138.438554,179.998527 C137.380762,180.021205 136.333922,179.781646 135.392379,179.301441 C134.55887,178.850035 133.89587,178.140727 133.50375,177.2809 C133.402563,177.06524 133.317711,176.84236 133.249902,176.614121 C133.030057,175.874135 132.954237,175.09919 133.026516,174.33091 C133.106515,173.176466 133.454053,172.056123 134.041908,171.057633 C134.591334,170.135629 135.366929,169.367423 136.296077,168.824936 C137.218954,168.28439 138.271349,168.001677 139.342253,168.006616 C140.672209,167.935512 141.968078,168.440194 142.896124,169.390687 C143.759031,170.422517 144.14268,171.769528 143.952132,173.09838 Z M141.576115,172.694272 C141.695031,172.008274 141.518111,171.304166 141.088727,170.754552 C140.631869,170.280648 139.991353,170.02647 139.332099,170.057466 C137.743265,170.01772 136.363109,171.137732 136.082845,172.694272 L141.576115,172.694272 Z" id="Shape" fill="#1A2045" fill-rule="nonzero"></path>
                <path d="M132,169.549032 L131.669341,170.117089 L130.857722,171.516943 C129.969194,170.751353 128.847831,170.318032 127.681388,170.289535 C126.710544,170.246759 125.769763,170.635877 125.106253,171.354641 C124.406758,172.21356 124.011656,173.284955 123.984015,174.397801 C123.843673,175.28255 124.056333,176.187497 124.575194,176.91348 C125.117529,177.533384 125.913461,177.863189 126.72949,177.806141 C127.302988,177.804979 127.872152,177.705516 128.412847,177.511969 C128.997534,177.277084 129.549851,176.966827 130.056124,176.588877 L130.276563,177.511969 L130.527063,178.526355 C129.962034,179.001666 129.312427,179.363195 128.613247,179.591462 C127.883501,179.857149 127.114208,179.994383 126.338711,179.997216 C125.295173,180.028784 124.26082,179.791432 123.332717,179.307433 C122.529447,178.858844 121.884817,178.167229 121.48904,177.329379 C121.076372,176.408838 120.92044,175.391514 121.038141,174.387657 C121.087529,173.191335 121.432002,172.026569 122.040139,170.999606 C122.611129,170.057354 123.420658,169.286849 124.384815,168.767955 C125.41428,168.249308 126.55168,167.988403 127.701428,168.007165 C129.278702,167.929655 130.822773,168.483503 132,169.549032 Z" id="Path" fill="#1A2045"></path>
                <path d="M121,168.186372 L120.564356,170.803577 C119.326433,170.28519 117.917676,170.498279 116.871287,171.362189 C116.267105,171.974686 115.882617,172.785425 115.782178,173.658709 L114.792079,180 L112,180 L113.356436,171.589773 C113.485149,170.555304 113.594059,169.758764 113.643564,169.200151 C113.665082,168.890217 113.665082,168.579063 113.643564,168.269129 L116.257426,168.269129 L116.168317,170.069104 C116.543008,169.411542 117.093694,168.882926 117.752475,168.548436 C118.428081,168.181809 119.179322,167.993574 119.940594,168.000167 C120.301284,167.998977 120.659536,168.061944 121,168.186372 Z" id="Path" fill="#1A2045"></path>
                <path d="M109.509018,170.677184 C109.91759,171.606094 110.075351,172.625852 109.966566,173.634731 C109.887634,174.821929 109.539965,175.9757 108.949793,177.008977 C108.410481,177.941476 107.621765,178.705218 106.67222,179.214432 C105.685268,179.73468 104.585145,180.003483 103.469384,179.997013 C102.409128,180.030054 101.35834,179.788476 100.419064,179.295739 C99.5915267,178.858894 98.9226947,178.172567 98.5075297,177.334205 C98.0917452,176.396456 97.9270619,175.36675 98.0296462,174.346168 C98.1049293,173.167914 98.4530012,172.023246 99.0464196,171.002413 C99.595206,170.062469 100.38956,169.289535 101.344328,168.766467 C102.338279,168.247592 103.446316,167.98555 104.567499,168.004213 C105.629649,167.964195 106.683073,168.209889 107.61782,168.71565 C108.445177,169.146083 109.109247,169.834851 109.509018,170.677184 Z M107.109433,173.553424 C107.243128,172.680797 107.047428,171.789653 106.560375,171.05323 C106.053411,170.46538 105.302078,170.1462 104.526828,170.189342 C103.567122,170.153502 102.649713,170.585486 102.066237,171.347968 C101.437624,172.243712 101.084249,173.303384 101.049463,174.396985 C100.866444,176.639707 101.757815,177.764455 103.723577,177.771231 C104.667278,177.807082 105.569626,177.382629 106.143498,176.632931 C106.74778,175.717171 107.082478,174.650116 107.109433,173.553424 Z" id="Shape" fill="#1A2045" fill-rule="nonzero"></path>
                <polygon id="Path" fill="#1A2045" points="98 164 97.5847909 166.322904 89.4509506 166.322904 88.6737643 170.708385 96.3285171 170.708385 95.9346008 173.041302 88.2798479 173.041302 87.0768061 180 84 180 86.7467681 164"></polygon>
                <path d="M83,168.135534 L82.7597911,169.38662 C82.4142077,169.333073 82.0651207,169.305194 81.7154047,169.303215 C80.638488,169.261813 79.5945756,169.678652 78.843342,170.450043 C78.1501812,171.207092 77.7024065,172.155597 77.5587467,173.171156 L76.4308094,180 L75,180 L76.4308094,171.523892 C76.5770235,170.481321 76.6814621,169.720243 76.7232376,169.188532 C76.7456365,168.886599 76.7456365,168.583427 76.7232376,168.281494 L78.154047,168.281494 L78.0287206,170.189401 C78.4607557,169.505844 79.0660373,168.94837 79.7832898,168.573414 C80.5095137,168.207827 81.3094611,168.011752 82.1227154,168 C82.4185127,168.01983 82.7120361,168.065177 83,168.135534 Z" id="Path" fill="#1A2045"></path>
                <path d="M72.5623281,171.600307 C72.9414727,172.527655 73.0775016,173.534377 72.9578328,174.527354 C72.8845966,175.712411 72.5545182,176.868163 71.9898871,177.916567 C71.0032249,179.819325 69.0143174,181.011187 66.848326,180.99767 C65.8904163,181.026676 64.9441305,180.784324 64.1214251,180.299287 C63.3637471,179.844715 62.7758016,179.160044 62.4457342,178.347922 C62.063056,177.417869 61.9234737,176.407806 62.0398214,175.410604 C62.10689,174.229705 62.4411933,173.07863 63.0181752,172.041932 C63.5200973,171.115943 64.2639765,170.339351 65.172635,169.792726 C66.0828409,169.261994 67.1234017,168.988418 68.1805523,169.00191 C69.1301664,168.975983 70.067987,169.214455 70.8866371,169.690023 C71.63469,170.137279 72.2209895,170.805659 72.5623281,171.600307 Z M71.5215263,174.414381 C71.6893859,173.302801 71.4173244,172.170109 70.7617409,171.251115 C70.1133282,170.45559 69.1076837,170.028653 68.0764721,170.111107 C66.8696831,170.071143 65.713766,170.59203 64.9540666,171.518144 C64.0702259,172.621285 63.5669569,173.974372 63.5177601,175.379793 C63.3303221,176.497468 63.5916668,177.643226 64.2463214,178.573869 C64.9551678,179.343301 65.9852293,179.745324 67.0356703,179.662526 C68.2431162,179.705741 69.4004366,179.184222 70.1580758,178.255489 C70.998914,177.162656 71.4883512,175.846135 71.5631583,174.476003 L71.5215263,174.414381 Z" id="Shape" fill="#1A2045" fill-rule="nonzero"></path>
                <path d="M60,168.567079 L59.8330996,169.682419 L56.5245442,169.682419 L55.4740533,176.394556 C55.4642393,176.54511 55.4642393,176.696166 55.4740533,176.846721 C55.3643972,177.384282 55.4939022,177.943915 55.8274895,178.374033 C56.2033494,178.692576 56.6862095,178.847688 57.1725105,178.806102 C57.5874107,178.811352 57.9998266,178.739868 58.3899018,178.595091 L58.2033661,179.820961 C57.7342186,179.937809 57.2528138,179.995179 56.769986,179.991779 C56.011843,180.050884 55.263157,179.789412 54.6984572,179.268315 C54.1917298,178.677309 53.9781934,177.880904 54.1192146,177.107971 C54.1093844,176.967478 54.1093844,176.826444 54.1192146,176.685951 L55.2187938,169.652274 L53,169.652274 L53.1767181,168.536934 L55.3955119,168.536934 L55.8667602,165.522502 L57.2117812,165 L56.6718093,168.516838 L60,168.567079 Z" id="Path" fill="#1A2045"></path>
                <path d="M51,169.052329 L49.0703936,180.815857 L47.6258249,180.815857 L47.9632424,178.722702 C47.5232017,179.43196 46.9056564,180.016062 46.1707119,180.418157 C45.4234889,180.798124 44.5956444,180.995471 43.7560678,180.993775 C42.6858655,181.053965 41.6376613,180.675639 40.856386,179.947198 C40.1751688,179.114613 39.8802645,178.035014 40.0444751,176.974918 C40.0255656,176.766237 40.050704,176.555934 40.1182852,176.357438 L41.3414237,169.031397 L42.7859924,169.031397 L41.5628539,176.231849 L41.5628539,176.797 C41.4046895,178.733168 42.2587776,179.664622 44.1356625,179.664622 C45.202267,179.701429 46.2416934,179.32627 47.0353442,178.618045 C47.8436696,177.832089 48.3539211,176.793309 48.479913,175.677163 L49.5343427,169 L51,169.052329 Z" id="Path" fill="#1A2045"></path>
                <polygon id="Path" fill="#1A2045" points="42 164 41.7978723 165.221527 35.6489362 165.221527 33.0851064 180 31.5957447 180 34.1489362 165.221527 28 165.221527 28.212766 164"></polygon>
                <path d="M170.780778,111.757063 C170.780778,114.235442 171.274028,116.280104 170.780778,118.603584 C170.122395,120.66577 169.294016,122.669185 168.304251,124.592999 C163.102119,137.537468 150.597341,146.008975 136.70542,145.999993 L29.9373363,145.999993 C16.5596538,145.681789 4.89362762,136.776837 1,123.911444 C6.27429678,129.034761 14.0630038,130.541825 20.8533145,127.752931 C32.9584928,123.188584 45.0842233,114.05989 45.0842233,114.05989 C45.0842233,114.05989 55.6788233,129.270938 73.8571429,126.234924 C92.0354624,123.198911 107.172073,112.541883 111.714084,100.356522 C117.776949,88.1918142 122.863591,74.1889756 122.596413,66 C122.70945,66.1548987 122.832762,66.2994707 122.935523,66.4543694 C125.572584,70.1096323 127.695725,74.1127047 129.245013,78.3505862 C130.162654,80.8846989 130.712915,83.5382464 130.878904,86.2297646 C131.567399,98.3944724 130.169857,114.741444 122.308684,124.685938 C129.871852,124.685938 145.018739,120.131917 149.571026,110.992896 C154.123313,101.853876 159.76486,91.4653392 159.990933,86.7770731 C166.885792,93.2350411 170.794987,102.285372 170.780778,111.757063 Z M163.947209,107.203043 C163.947209,105.520595 162.589991,104.156702 160.915777,104.156702 C159.241563,104.156702 157.884344,105.520595 157.884344,107.203043 C157.884344,108.88549 159.241563,110.249383 160.915777,110.249383 C162.578472,110.22176 163.919721,108.873914 163.947209,107.203043 Z" id="Shape" fill="#F0F2FA" fill-rule="nonzero"></path>
                <path d="M30.3916125,144.989744 C13.3595144,144.561717 -0.173175119,130.628577 0.00167542588,113.700526 C0.176525971,96.7724751 13.9941666,83.118247 31.0315182,83.0376533 C32.9919473,83.0288901 34.9485273,83.2109356 36.8732384,83.5811827 C41.1080472,65.1860831 55.7236653,50.9181712 74.3087549,47.0362589 C92.8938445,43.1543466 112.054002,50.3674311 123.384366,65.5113956 C123.497897,65.6652247 123.62175,65.8087985 123.724961,65.9626276 C126.382559,69.6035155 128.518754,73.5932726 130.072413,77.8177205 C132.526031,77.2547233 135.037015,76.975974 137.555181,76.9870436 C156.452207,76.9983582 171.76843,92.2169509 171.779817,110.993521 C171.779817,113.454786 172.275228,115.475075 171.779817,117.782511 C171.116727,119.833099 170.284789,121.82594 169.292442,123.740823 C164.062904,136.592195 151.506226,145.003274 137.555181,144.999999 L31.155371,144.999999 L30.3916125,144.989744 Z" id="Path" stroke="#1A2045" stroke-width="1.37"></path>
            </g>
        </g>
    </g>
</svg>